<?xml version="1.0" encoding="UTF-8"?>
<svg xmlns="http://www.w3.org/2000/svg" xmlns:xlink="http://www.w3.org/1999/xlink" width="100px" height="100px" viewBox="0 0 100 100" version="1.1">
<g id="surface1">
<path style=" stroke:none;fill-rule:nonzero;fill:rgb(84.705882%,85.098039%,86.666667%);fill-opacity:1;" d="M 100 50 C 100 77.613281 77.613281 100 50 100 C 22.386719 100 0 77.613281 0 50 C 0 22.386719 22.386719 0 50 0 C 77.613281 0 100 22.386719 100 50 Z M 100 50 "/>
<path style=" stroke:none;fill-rule:nonzero;fill:rgb(71.764706%,72.54902%,75.294118%);fill-opacity:1;" d="M 50 0 C 77.613281 0 100 22.386719 100 50 C 100 77.613281 77.613281 100 50 100 C 50 60.230469 50 27.769531 50 0 Z M 50 0 "/>
<path style=" stroke:none;fill-rule:nonzero;fill:rgb(60.784314%,61.568627%,65.098039%);fill-opacity:1;" d="M 75.257812 27 C 75.257812 30.582031 72.355469 33.488281 68.773438 33.488281 C 65.1875 33.488281 62.285156 30.582031 62.285156 27 C 62.285156 23.417969 65.1875 20.511719 68.773438 20.511719 C 72.355469 20.511719 75.257812 23.417969 75.257812 27 Z M 75.257812 27 "/>
<path style=" stroke:none;fill-rule:nonzero;fill:rgb(71.764706%,72.54902%,75.294118%);fill-opacity:1;" d="M 25.414062 46.152344 C 25.414062 49.738281 22.507812 52.640625 18.925781 52.640625 C 15.34375 52.640625 12.4375 49.738281 12.4375 46.152344 C 12.4375 42.570312 15.34375 39.667969 18.925781 39.667969 C 22.507812 39.667969 25.414062 42.570312 25.414062 46.152344 Z M 25.414062 46.152344 "/>
<path style=" stroke:none;fill-rule:nonzero;fill:rgb(71.764706%,72.54902%,75.294118%);fill-opacity:1;" d="M 34.308594 20.511719 C 42.804688 20.511719 49.695312 13.625 49.695312 5.128906 C 49.695312 3.335938 49.386719 1.613281 48.824219 0.015625 C 37.917969 0.265625 27.875 4.011719 19.773438 10.171875 C 21.859375 16.191406 27.578125 20.511719 34.308594 20.511719 Z M 34.308594 20.511719 "/>
<path style=" stroke:none;fill-rule:nonzero;fill:rgb(60.784314%,61.568627%,65.098039%);fill-opacity:1;" d="M 93.355469 48.5625 C 81.90625 48.5625 72.625 57.84375 72.625 69.292969 C 72.625 77.054688 76.894531 83.820312 83.210938 87.371094 C 93.511719 78.214844 100 64.867188 100 50 C 100 49.882812 95.679688 48.5625 93.355469 48.5625 Z M 93.355469 48.5625 "/>
<path style=" stroke:none;fill-rule:nonzero;fill:rgb(71.764706%,72.54902%,75.294118%);fill-opacity:1;" d="M 50 66.289062 C 48.09375 64.597656 45.585938 63.566406 42.835938 63.566406 C 36.878906 63.566406 32.046875 68.398438 32.046875 74.359375 C 32.046875 80.320312 36.875 85.152344 42.835938 85.152344 C 45.585938 85.152344 48.09375 84.121094 50 82.429688 C 52.226562 80.453125 53.628906 77.570312 53.628906 74.359375 C 53.628906 71.148438 52.226562 68.265625 50 66.289062 Z M 50 66.289062 "/>
<path style=" stroke:none;fill-rule:nonzero;fill:rgb(60.784314%,61.568627%,65.098039%);fill-opacity:1;" d="M 50 66.289062 L 50 82.429688 C 52.226562 80.453125 53.628906 77.570312 53.628906 74.359375 C 53.628906 71.148438 52.226562 68.265625 50 66.289062 Z M 50 66.289062 "/>
</g>
</svg>
