<?xml version="1.0" encoding="UTF-8"?>
<svg xmlns="http://www.w3.org/2000/svg" xmlns:xlink="http://www.w3.org/1999/xlink" width="100px" height="100px" viewBox="0 0 100 100" version="1.1">
<g id="surface1">
<path style=" stroke:none;fill-rule:nonzero;fill:rgb(100%,30.980392%,9.803922%);fill-opacity:1;" d="M 5.15625 72.128906 C 5.023438 71.863281 4.890625 71.59375 4.765625 71.320312 C 4.890625 71.59375 5.023438 71.863281 5.15625 72.128906 Z M 5.15625 72.128906 "/>
<path style=" stroke:none;fill-rule:nonzero;fill:rgb(100%,30.980392%,9.803922%);fill-opacity:1;" d="M 4.652344 71.078125 C 4.527344 70.816406 4.40625 70.550781 4.289062 70.285156 C 4.40625 70.550781 4.527344 70.816406 4.652344 71.078125 Z M 4.652344 71.078125 "/>
<path style=" stroke:none;fill-rule:nonzero;fill:rgb(100%,30.980392%,9.803922%);fill-opacity:1;" d="M 4.171875 70.019531 C 4.058594 69.757812 3.945312 69.496094 3.835938 69.234375 C 3.945312 69.496094 4.058594 69.757812 4.171875 70.019531 Z M 4.171875 70.019531 "/>
<path style=" stroke:none;fill-rule:nonzero;fill:rgb(100%,30.980392%,9.803922%);fill-opacity:1;" d="M 3.722656 68.953125 C 3.613281 68.691406 3.507812 68.425781 3.402344 68.160156 C 3.507812 68.425781 3.613281 68.691406 3.722656 68.953125 Z M 3.722656 68.953125 "/>
<path style=" stroke:none;fill-rule:nonzero;fill:rgb(100%,30.980392%,9.803922%);fill-opacity:1;" d="M 63.242188 1.777344 C 71.273438 3.980469 78.5 8.140625 84.375 13.710938 C 82.394531 13.46875 80.378906 13.332031 78.332031 13.332031 C 52.445312 13.332031 31.148438 33.011719 28.589844 58.222656 C 28.589844 58.230469 28.589844 58.238281 28.589844 58.246094 C 28.589844 58.246094 28.589844 58.25 28.589844 58.253906 C 35.191406 59.398438 42.550781 60 50 60 C 58.71875 60 67.246094 59.183594 74.660156 57.636719 C 77.585938 57.023438 80.328125 56.300781 82.8125 55.484375 C 83.6875 55.195312 84.628906 55.671875 84.917969 56.550781 C 85.203125 57.421875 84.726562 58.363281 83.851562 58.652344 C 82.230469 59.183594 80.5 59.671875 78.699219 60.121094 C 78.675781 60.140625 78.667969 60.164062 78.644531 60.183594 L 75.382812 62.628906 L 78.777344 63.5625 C 79.507812 63.765625 80.011719 64.433594 80 65.191406 C 79.992188 65.949219 79.472656 66.605469 78.738281 66.785156 C 70.328125 68.890625 60.390625 70 50 70 C 49.265625 70 48.617188 69.519531 48.40625 68.816406 C 48.191406 68.113281 48.464844 67.355469 49.074219 66.945312 C 49.609375 66.589844 49.589844 66.0625 49.558594 65.851562 C 49.523438 65.640625 49.382812 65.128906 48.761719 64.953125 L 39.640625 62.9375 C 39.625 62.933594 39.617188 62.921875 39.605469 62.917969 C 35.71875 62.628906 31.9375 62.191406 28.367188 61.59375 C 28.347656 62.171875 28.332031 62.75 28.332031 63.332031 C 28.332031 74.625 32.085938 85.035156 38.402344 93.402344 C 42.273438 91.640625 46.253906 89.851562 50.070312 90 C 56.074219 90.265625 59.140625 88.570312 59.171875 88.554688 C 59.96875 88.109375 60.988281 88.382812 61.441406 89.175781 C 61.894531 89.96875 61.632812 90.976562 60.839844 91.4375 C 60.6875 91.53125 57.027344 93.636719 49.929688 93.332031 C 47.128906 93.1875 43.832031 94.597656 40.570312 96.082031 C 40.570312 96.082031 40.570312 96.082031 40.566406 96.082031 C 41.640625 97.316406 42.773438 98.5 43.960938 99.625 C 41.28125 99.300781 38.667969 98.765625 36.136719 98.035156 C 36.128906 98.035156 36.121094 98.03125 36.113281 98.03125 C 35.695312 97.910156 35.277344 97.78125 34.863281 97.652344 C 34.605469 97.570312 34.351562 97.484375 34.097656 97.398438 C 33.996094 97.367188 33.898438 97.335938 33.800781 97.300781 C 32.679688 96.921875 31.574219 96.507812 30.492188 96.050781 C 30.503906 96.050781 30.515625 96.050781 30.527344 96.050781 C 20.21875 91.6875 11.679688 83.972656 6.277344 74.269531 C 14.8125 89.613281 31.191406 100 50 100 C 77.613281 100 100 77.613281 100 50 C 100 26.96875 84.429688 7.582031 63.242188 1.777344 Z M 56.667969 48.332031 C 56.613281 48.335938 56.523438 48.332031 56.453125 48.332031 C 54.074219 48.332031 52.605469 49.082031 50.914062 49.945312 C 49.113281 50.863281 47.125 51.878906 44.0625 51.878906 C 43.253906 51.878906 42.371094 51.804688 41.394531 51.644531 C 40.484375 51.492188 39.871094 50.632812 40.023438 49.726562 C 40.171875 48.816406 41.027344 48.195312 41.941406 48.355469 C 45.527344 48.949219 47.316406 48.035156 49.398438 46.976562 C 51.261719 46.023438 53.300781 44.902344 56.695312 45 C 57.613281 45.015625 58.347656 45.773438 58.332031 46.695312 C 58.320312 47.605469 57.574219 48.332031 56.667969 48.332031 Z M 69.644531 46.03125 C 68.148438 47.933594 64.503906 48.273438 63.421875 48.332031 C 63.390625 48.332031 63.363281 48.332031 63.332031 48.332031 C 62.453125 48.332031 61.71875 47.644531 61.667969 46.757812 C 61.621094 45.839844 62.324219 45.054688 63.242188 45.003906 C 64.839844 44.910156 66.675781 44.410156 67.023438 43.96875 C 67.589844 43.246094 68.636719 43.117188 69.363281 43.691406 C 70.085938 44.257812 70.214844 45.304688 69.644531 46.03125 Z M 42.851562 69.5 C 42.53125 69.816406 42.097656 70 41.667969 70 C 41.234375 70 40.800781 69.816406 40.484375 69.515625 C 40.183594 69.199219 40 68.765625 40 68.332031 C 40 67.898438 40.183594 67.464844 40.484375 67.148438 C 41.101562 66.53125 42.214844 66.53125 42.851562 67.148438 C 43.164062 67.464844 43.332031 67.898438 43.332031 68.332031 C 43.332031 68.765625 43.164062 69.199219 42.851562 69.5 Z M 64.515625 77.832031 C 64.199219 78.148438 63.765625 78.332031 63.332031 78.332031 C 62.898438 78.332031 62.464844 78.148438 62.148438 77.851562 C 61.847656 77.53125 61.667969 77.097656 61.667969 76.667969 C 61.667969 76.234375 61.847656 75.800781 62.148438 75.484375 C 62.765625 74.867188 63.882812 74.867188 64.515625 75.484375 C 64.832031 75.800781 65 76.234375 65 76.667969 C 65 77.097656 64.832031 77.53125 64.515625 77.832031 Z M 77.851562 41.144531 C 77.53125 41.460938 77.097656 41.644531 76.667969 41.644531 C 76.234375 41.644531 75.800781 41.460938 75.484375 41.164062 C 75.183594 40.84375 75 40.410156 75 39.980469 C 75 39.546875 75.183594 39.113281 75.484375 38.796875 C 76.101562 38.179688 77.214844 38.179688 77.847656 38.796875 C 78.164062 39.113281 78.332031 39.546875 78.332031 39.980469 C 78.332031 40.410156 78.164062 40.84375 77.851562 41.144531 Z M 84.515625 47.832031 C 84.199219 48.148438 83.765625 48.332031 83.332031 48.332031 C 82.898438 48.332031 82.464844 48.148438 82.148438 47.851562 C 81.847656 47.53125 81.667969 47.097656 81.667969 46.667969 C 81.667969 46.234375 81.847656 45.800781 82.148438 45.484375 C 82.765625 44.867188 83.882812 44.867188 84.515625 45.484375 C 84.832031 45.800781 85 46.234375 85 46.667969 C 85 47.097656 84.832031 47.53125 84.515625 47.832031 Z M 77.035156 27.195312 C 76.910156 27.222656 76.785156 27.234375 76.664062 27.234375 C 75.902344 27.234375 75.214844 26.714844 75.039062 25.941406 C 74.835938 25.042969 75.394531 24.148438 76.292969 23.945312 C 81.460938 22.761719 85.945312 21.304688 89.710938 19.628906 C 90.402344 20.53125 91.0625 21.457031 91.691406 22.402344 C 87.605469 24.285156 82.691406 25.902344 77.035156 27.195312 Z M 77.035156 27.195312 "/>
<path style=" stroke:none;fill-rule:nonzero;fill:rgb(100%,30.980392%,9.803922%);fill-opacity:1;" d="M 5.683594 73.167969 C 5.539062 72.890625 5.398438 72.613281 5.257812 72.332031 C 5.398438 72.613281 5.539062 72.890625 5.683594 73.167969 Z M 5.683594 73.167969 "/>
<path style=" stroke:none;fill-rule:nonzero;fill:rgb(100%,30.980392%,9.803922%);fill-opacity:1;" d="M 6.234375 74.191406 C 6.074219 73.902344 5.917969 73.613281 5.761719 73.320312 C 5.917969 73.613281 6.074219 73.902344 6.234375 74.191406 Z M 6.234375 74.191406 "/>
<path style=" stroke:none;fill-rule:nonzero;fill:rgb(100%,30.980392%,9.803922%);fill-opacity:1;" d="M 0.625 57.90625 C 0.59375 57.71875 0.566406 57.53125 0.539062 57.34375 C 0.566406 57.53125 0.59375 57.71875 0.625 57.90625 Z M 0.625 57.90625 "/>
<path style=" stroke:none;fill-rule:nonzero;fill:rgb(100%,30.980392%,9.803922%);fill-opacity:1;" d="M 57.429688 0.550781 C 57.710938 0.59375 57.992188 0.636719 58.273438 0.683594 C 57.992188 0.636719 57.710938 0.59375 57.429688 0.550781 Z M 57.429688 0.550781 "/>
<path style=" stroke:none;fill-rule:nonzero;fill:rgb(100%,30.980392%,9.803922%);fill-opacity:1;" d="M 58.625 0.742188 C 58.925781 0.796875 59.226562 0.851562 59.523438 0.910156 C 59.226562 0.851562 58.925781 0.796875 58.625 0.742188 Z M 58.625 0.742188 "/>
<path style=" stroke:none;fill-rule:nonzero;fill:rgb(100%,30.980392%,9.803922%);fill-opacity:1;" d="M 0.0898438 52.976562 C 0.0820312 52.8125 0.0703125 52.648438 0.0625 52.480469 C 0.0703125 52.648438 0.0820312 52.8125 0.0898438 52.976562 Z M 0.0898438 52.976562 "/>
<path style=" stroke:none;fill-rule:nonzero;fill:rgb(100%,30.980392%,9.803922%);fill-opacity:1;" d="M 0.03125 51.660156 C 0.0273438 51.523438 0.0195312 51.382812 0.015625 51.246094 C 0.0195312 51.382812 0.0273438 51.523438 0.03125 51.660156 Z M 0.03125 51.660156 "/>
<path style=" stroke:none;fill-rule:nonzero;fill:rgb(100%,30.980392%,9.803922%);fill-opacity:1;" d="M 56.222656 0.386719 C 56.488281 0.417969 56.75 0.453125 57.011719 0.492188 C 56.75 0.453125 56.488281 0.417969 56.222656 0.386719 Z M 56.222656 0.386719 "/>
<path style=" stroke:none;fill-rule:nonzero;fill:rgb(100%,30.980392%,9.803922%);fill-opacity:1;" d="M 51.265625 0.015625 C 51.425781 0.0195312 51.585938 0.0273438 51.742188 0.0351562 C 51.585938 0.0273438 51.425781 0.0195312 51.265625 0.015625 Z M 51.265625 0.015625 "/>
<path style=" stroke:none;fill-rule:nonzero;fill:rgb(100%,30.980392%,9.803922%);fill-opacity:1;" d="M 52.523438 0.0625 C 52.722656 0.0742188 52.921875 0.0859375 53.117188 0.0976562 C 52.921875 0.0859375 52.722656 0.0742188 52.523438 0.0625 Z M 52.523438 0.0625 "/>
<path style=" stroke:none;fill-rule:nonzero;fill:rgb(100%,30.980392%,9.803922%);fill-opacity:1;" d="M 59.800781 0.964844 C 60.121094 1.027344 60.441406 1.09375 60.761719 1.164062 C 60.441406 1.09375 60.121094 1.027344 59.800781 0.964844 Z M 59.800781 0.964844 "/>
<path style=" stroke:none;fill-rule:nonzero;fill:rgb(100%,30.980392%,9.803922%);fill-opacity:1;" d="M 60.964844 1.210938 C 61.304688 1.285156 61.644531 1.367188 61.980469 1.449219 C 61.644531 1.367188 61.304688 1.285156 60.964844 1.210938 Z M 60.964844 1.210938 "/>
<path style=" stroke:none;fill-rule:nonzero;fill:rgb(100%,30.980392%,9.803922%);fill-opacity:1;" d="M 62.113281 1.480469 C 62.472656 1.570312 62.835938 1.664062 63.191406 1.761719 C 62.835938 1.664062 62.472656 1.570312 62.113281 1.480469 Z M 62.113281 1.480469 "/>
<path style=" stroke:none;fill-rule:nonzero;fill:rgb(100%,30.980392%,9.803922%);fill-opacity:1;" d="M 0.449219 56.699219 C 0.421875 56.511719 0.398438 56.328125 0.375 56.144531 C 0.398438 56.328125 0.421875 56.511719 0.449219 56.699219 Z M 0.449219 56.699219 "/>
<path style=" stroke:none;fill-rule:nonzero;fill:rgb(100%,30.980392%,9.803922%);fill-opacity:1;" d="M 0.300781 55.476562 C 0.28125 55.292969 0.261719 55.113281 0.242188 54.929688 C 0.261719 55.113281 0.28125 55.292969 0.300781 55.476562 Z M 0.300781 55.476562 "/>
<path style=" stroke:none;fill-rule:nonzero;fill:rgb(100%,30.980392%,9.803922%);fill-opacity:1;" d="M 0.179688 54.238281 C 0.164062 54.0625 0.148438 53.886719 0.136719 53.710938 C 0.148438 53.886719 0.164062 54.0625 0.179688 54.238281 Z M 0.179688 54.238281 "/>
<path style=" stroke:none;fill-rule:nonzero;fill:rgb(100%,30.980392%,9.803922%);fill-opacity:1;" d="M 53.769531 0.140625 C 53.992188 0.15625 54.214844 0.179688 54.4375 0.199219 C 54.214844 0.179688 53.992188 0.15625 53.769531 0.140625 Z M 53.769531 0.140625 "/>
<path style=" stroke:none;fill-rule:nonzero;fill:rgb(100%,30.980392%,9.803922%);fill-opacity:1;" d="M 1.609375 62.628906 C 1.558594 62.429688 1.511719 62.230469 1.460938 62.03125 C 1.511719 62.230469 1.558594 62.429688 1.609375 62.628906 Z M 1.609375 62.628906 "/>
<path style=" stroke:none;fill-rule:nonzero;fill:rgb(100%,30.980392%,9.803922%);fill-opacity:1;" d="M 3.304688 67.898438 C 3.199219 67.625 3.09375 67.347656 2.992188 67.074219 C 3.09375 67.347656 3.199219 67.625 3.304688 67.898438 Z M 3.304688 67.898438 "/>
<path style=" stroke:none;fill-rule:nonzero;fill:rgb(100%,30.980392%,9.803922%);fill-opacity:1;" d="M 1.925781 63.785156 C 1.863281 63.574219 1.808594 63.359375 1.75 63.148438 C 1.808594 63.359375 1.863281 63.574219 1.925781 63.785156 Z M 1.925781 63.785156 "/>
<path style=" stroke:none;fill-rule:nonzero;fill:rgb(100%,30.980392%,9.803922%);fill-opacity:1;" d="M 1.324219 61.464844 C 1.277344 61.273438 1.234375 61.078125 1.191406 60.882812 C 1.234375 61.078125 1.277344 61.273438 1.324219 61.464844 Z M 1.324219 61.464844 "/>
<path style=" stroke:none;fill-rule:nonzero;fill:rgb(100%,30.980392%,9.803922%);fill-opacity:1;" d="M 2.9375 66.921875 C 2.613281 66.023438 2.316406 65.109375 2.042969 64.1875 C 2.316406 65.109375 2.617188 66.023438 2.9375 66.921875 Z M 2.9375 66.921875 "/>
<path style=" stroke:none;fill-rule:nonzero;fill:rgb(100%,30.980392%,9.803922%);fill-opacity:1;" d="M 1.0625 60.289062 C 1.023438 60.097656 0.984375 59.90625 0.945312 59.714844 C 0.984375 59.90625 1.023438 60.097656 1.0625 60.289062 Z M 1.0625 60.289062 "/>
<path style=" stroke:none;fill-rule:nonzero;fill:rgb(100%,30.980392%,9.803922%);fill-opacity:1;" d="M 0.828125 59.105469 C 0.792969 58.914062 0.761719 58.726562 0.730469 58.535156 C 0.761719 58.726562 0.792969 58.914062 0.828125 59.105469 Z M 0.828125 59.105469 "/>
<path style=" stroke:none;fill-rule:nonzero;fill:rgb(100%,30.980392%,9.803922%);fill-opacity:1;" d="M 55.003906 0.25 C 55.246094 0.273438 55.488281 0.300781 55.734375 0.328125 C 55.488281 0.300781 55.246094 0.273438 55.003906 0.25 Z M 55.003906 0.25 "/>
<path style=" stroke:none;fill-rule:nonzero;fill:rgb(85.882353%,24.705882%,23.921569%);fill-opacity:1;" d="M 30.527344 96.050781 C 30.515625 96.050781 30.503906 96.050781 30.492188 96.050781 C 31.574219 96.507812 32.679688 96.921875 33.800781 97.300781 C 33.898438 97.335938 33.996094 97.367188 34.097656 97.398438 C 34.351562 97.484375 34.605469 97.570312 34.863281 97.652344 C 35.277344 97.78125 35.695312 97.910156 36.113281 98.03125 C 36.121094 98.03125 36.128906 98.035156 36.132812 98.035156 C 36.132812 98.035156 36.136719 98.035156 36.136719 98.035156 C 38.667969 98.765625 41.28125 99.300781 43.957031 99.625 C 42.773438 98.5 41.640625 97.316406 40.566406 96.082031 C 40.265625 96.21875 39.960938 96.359375 39.65625 96.496094 C 38.464844 97.039062 37.292969 97.570312 36.152344 98.027344 C 35.992188 97.984375 35.835938 97.9375 35.675781 97.890625 C 35.113281 97.722656 34.558594 97.542969 34.003906 97.359375 C 33.644531 97.238281 33.285156 97.121094 32.933594 96.992188 C 32.546875 96.855469 32.167969 96.699219 31.785156 96.550781 C 31.363281 96.386719 30.941406 96.222656 30.53125 96.046875 C 32.460938 96.09375 35.40625 94.765625 38.273438 93.460938 C 38.320312 93.441406 38.367188 93.421875 38.414062 93.398438 C 39.105469 94.316406 39.816406 95.214844 40.566406 96.082031 C 43.828125 94.597656 47.128906 93.1875 49.929688 93.332031 C 57.027344 93.636719 60.6875 91.53125 60.839844 91.4375 C 61.628906 90.976562 61.894531 89.96875 61.441406 89.175781 C 60.984375 88.382812 59.96875 88.109375 59.171875 88.554688 C 59.140625 88.570312 56.074219 90.265625 50.070312 90 C 46.253906 89.855469 42.269531 91.640625 38.402344 93.402344 C 32.085938 85.035156 28.332031 74.625 28.332031 63.332031 C 28.332031 62.75 28.347656 62.171875 28.367188 61.59375 C 31.9375 62.195312 35.71875 62.628906 39.601562 62.917969 C 39.617188 62.921875 39.625 62.933594 39.640625 62.9375 L 48.761719 64.953125 C 49.382812 65.128906 49.523438 65.640625 49.558594 65.851562 C 49.589844 66.0625 49.609375 66.589844 49.074219 66.945312 C 48.464844 67.355469 48.191406 68.113281 48.40625 68.816406 C 48.617188 69.519531 49.265625 70 50 70 C 60.390625 70 70.328125 68.890625 78.738281 66.785156 C 79.472656 66.605469 79.988281 65.949219 80 65.191406 C 80.011719 64.433594 79.507812 63.765625 78.777344 63.5625 L 75.382812 62.628906 L 78.644531 60.183594 C 78.667969 60.164062 78.675781 60.140625 78.695312 60.121094 C 80.5 59.671875 82.230469 59.183594 83.851562 58.652344 C 84.726562 58.363281 85.203125 57.421875 84.917969 56.550781 C 84.628906 55.671875 83.6875 55.195312 82.8125 55.484375 C 80.328125 56.300781 77.585938 57.023438 74.660156 57.636719 C 67.246094 59.183594 58.71875 60 50 60 C 42.550781 60 35.191406 59.398438 28.589844 58.253906 C 28.589844 58.25 28.589844 58.246094 28.589844 58.246094 C 28.476562 59.347656 28.417969 60.464844 28.378906 61.585938 C 27.699219 61.472656 27.015625 61.363281 26.355469 61.238281 C 25.449219 61.0625 24.855469 60.191406 25.027344 59.289062 C 25.199219 58.382812 26.074219 57.792969 26.976562 57.960938 C 27.5 58.0625 28.058594 58.132812 28.589844 58.222656 C 31.148438 33.011719 52.445312 13.332031 78.332031 13.332031 C 80.378906 13.332031 82.394531 13.46875 84.375 13.710938 C 78.496094 8.140625 71.273438 3.980469 63.242188 1.777344 C 63.226562 1.769531 63.207031 1.765625 63.191406 1.761719 C 62.835938 1.664062 62.472656 1.570312 62.113281 1.480469 C 62.070312 1.46875 62.027344 1.460938 61.980469 1.449219 C 61.644531 1.367188 61.304688 1.285156 60.964844 1.210938 C 60.898438 1.195312 60.828125 1.179688 60.761719 1.164062 C 60.441406 1.09375 60.121094 1.027344 59.800781 0.964844 C 59.710938 0.945312 59.617188 0.929688 59.523438 0.910156 C 59.226562 0.851562 58.925781 0.796875 58.625 0.742188 C 58.507812 0.722656 58.390625 0.703125 58.273438 0.683594 C 57.992188 0.636719 57.710938 0.59375 57.429688 0.550781 C 57.292969 0.53125 57.152344 0.511719 57.011719 0.492188 C 56.75 0.453125 56.488281 0.417969 56.222656 0.386719 C 56.058594 0.363281 55.894531 0.347656 55.734375 0.328125 C 55.488281 0.300781 55.246094 0.273438 55.003906 0.25 C 54.816406 0.230469 54.625 0.214844 54.4375 0.199219 C 54.214844 0.179688 53.992188 0.15625 53.769531 0.140625 C 53.554688 0.125 53.335938 0.113281 53.121094 0.0976562 C 52.921875 0.0859375 52.722656 0.0742188 52.523438 0.0625 C 52.265625 0.0507812 52.003906 0.0429688 51.742188 0.0351562 C 51.585938 0.0273438 51.425781 0.0195312 51.265625 0.015625 C 50.84375 0.00390625 50.421875 0 50 0 C 28.121094 0 9.527344 14.050781 2.746094 33.621094 C 2.84375 33.339844 2.941406 33.058594 3.046875 32.78125 C 3.082031 32.8125 3.128906 32.828125 3.164062 32.863281 C 5.828125 35.710938 10.679688 38.347656 17.191406 40.488281 C 18.066406 40.773438 18.542969 41.714844 18.257812 42.589844 C 18.027344 43.292969 17.375 43.738281 16.671875 43.738281 C 16.5 43.738281 16.328125 43.710938 16.152344 43.652344 C 9.949219 41.617188 5.078125 39.089844 1.917969 36.292969 C 2.171875 35.402344 2.441406 34.519531 2.738281 33.648438 C 0.964844 38.773438 0 44.273438 0 50 C 0 50.417969 0.00390625 50.832031 0.015625 51.246094 C 0.0195312 51.382812 0.0273438 51.523438 0.03125 51.660156 C 0.0390625 51.933594 0.046875 52.207031 0.0625 52.480469 C 0.0703125 52.648438 0.0820312 52.8125 0.0898438 52.976562 C 0.105469 53.222656 0.121094 53.464844 0.136719 53.710938 C 0.148438 53.886719 0.164062 54.0625 0.179688 54.238281 C 0.199219 54.46875 0.21875 54.699219 0.242188 54.929688 C 0.261719 55.113281 0.28125 55.292969 0.300781 55.476562 C 0.324219 55.699219 0.347656 55.921875 0.375 56.144531 C 0.398438 56.328125 0.421875 56.511719 0.449219 56.699219 C 0.476562 56.914062 0.507812 57.128906 0.539062 57.34375 C 0.566406 57.53125 0.59375 57.71875 0.625 57.90625 C 0.65625 58.117188 0.691406 58.328125 0.730469 58.535156 C 0.761719 58.726562 0.792969 58.914062 0.828125 59.105469 C 0.867188 59.308594 0.90625 59.511719 0.945312 59.714844 C 0.984375 59.90625 1.023438 60.097656 1.0625 60.289062 C 1.105469 60.488281 1.148438 60.683594 1.191406 60.882812 C 1.234375 61.078125 1.277344 61.273438 1.324219 61.464844 C 1.367188 61.65625 1.414062 61.84375 1.460938 62.03125 C 1.511719 62.230469 1.558594 62.429688 1.609375 62.628906 C 1.65625 62.804688 1.703125 62.976562 1.75 63.148438 C 1.808594 63.359375 1.867188 63.574219 1.925781 63.785156 C 1.964844 63.917969 2.003906 64.050781 2.046875 64.1875 C 2.316406 65.109375 2.617188 66.023438 2.941406 66.921875 C 2.957031 66.972656 2.972656 67.023438 2.992188 67.074219 C 3.09375 67.347656 3.199219 67.625 3.304688 67.898438 C 3.335938 67.984375 3.371094 68.074219 3.402344 68.160156 C 3.507812 68.425781 3.613281 68.691406 3.722656 68.953125 C 3.761719 69.046875 3.796875 69.140625 3.835938 69.230469 C 3.945312 69.496094 4.058594 69.757812 4.171875 70.019531 C 4.210938 70.109375 4.25 70.199219 4.289062 70.285156 C 4.410156 70.550781 4.53125 70.816406 4.652344 71.078125 C 4.691406 71.160156 4.726562 71.242188 4.765625 71.320312 C 4.894531 71.59375 5.023438 71.859375 5.15625 72.128906 C 5.191406 72.199219 5.222656 72.265625 5.257812 72.332031 C 5.398438 72.613281 5.539062 72.890625 5.683594 73.167969 C 5.710938 73.21875 5.738281 73.269531 5.765625 73.316406 C 5.917969 73.609375 6.078125 73.902344 6.238281 74.191406 C 6.25 74.21875 6.265625 74.242188 6.277344 74.265625 C 11.679688 83.972656 20.21875 91.6875 30.527344 96.050781 Z M 35.484375 15.484375 C 36.101562 14.867188 37.214844 14.867188 37.851562 15.484375 C 38.164062 15.800781 38.332031 16.234375 38.332031 16.667969 C 38.332031 17.097656 38.164062 17.53125 37.851562 17.832031 C 37.53125 18.148438 37.097656 18.332031 36.667969 18.332031 C 36.234375 18.332031 35.800781 18.148438 35.484375 17.851562 C 35.183594 17.53125 35 17.097656 35 16.667969 C 35 16.234375 35.183594 15.800781 35.484375 15.484375 Z M 21.839844 22.089844 C 23.132812 20.0625 25.4375 19.21875 26.988281 20.207031 C 28.542969 21.195312 28.757812 23.640625 27.464844 25.667969 C 26.175781 27.695312 23.867188 28.539062 22.316406 27.550781 C 20.761719 26.5625 20.550781 24.117188 21.839844 22.089844 Z M 11.589844 57.253906 C 11.175781 55.34375 12.027344 53.539062 13.492188 53.222656 C 14.953125 52.90625 16.476562 54.199219 16.886719 56.109375 C 17.300781 58.019531 16.449219 59.824219 14.988281 60.140625 C 13.523438 60.457031 12.003906 59.164062 11.589844 57.253906 Z M 11.589844 57.253906 "/>
<path style=" stroke:none;fill-rule:nonzero;fill:rgb(85.882353%,24.705882%,23.921569%);fill-opacity:1;" d="M 56.695312 45 C 53.300781 44.902344 51.261719 46.023438 49.398438 46.976562 C 47.316406 48.035156 45.527344 48.949219 41.941406 48.355469 C 41.027344 48.195312 40.171875 48.816406 40.023438 49.726562 C 39.871094 50.632812 40.484375 51.492188 41.394531 51.644531 C 42.371094 51.804688 43.253906 51.878906 44.0625 51.878906 C 47.125 51.878906 49.113281 50.863281 50.914062 49.945312 C 52.605469 49.082031 54.074219 48.332031 56.453125 48.332031 C 56.523438 48.332031 56.613281 48.335938 56.667969 48.332031 C 57.574219 48.332031 58.320312 47.605469 58.332031 46.695312 C 58.347656 45.773438 57.613281 45.015625 56.695312 45 Z M 56.695312 45 "/>
<path style=" stroke:none;fill-rule:nonzero;fill:rgb(85.882353%,24.705882%,23.921569%);fill-opacity:1;" d="M 69.363281 43.691406 C 68.636719 43.117188 67.589844 43.246094 67.023438 43.96875 C 66.675781 44.410156 64.839844 44.910156 63.242188 45.003906 C 62.324219 45.054688 61.621094 45.839844 61.671875 46.757812 C 61.71875 47.648438 62.453125 48.332031 63.332031 48.332031 C 63.363281 48.332031 63.390625 48.332031 63.421875 48.332031 C 64.503906 48.273438 68.148438 47.933594 69.644531 46.03125 C 70.214844 45.304688 70.085938 44.257812 69.363281 43.691406 Z M 69.363281 43.691406 "/>
<path style=" stroke:none;fill-rule:nonzero;fill:rgb(62.745098%,22.352941%,22.352941%);fill-opacity:1;" d="M 22.3125 27.550781 C 23.867188 28.539062 26.171875 27.699219 27.464844 25.667969 C 28.753906 23.640625 28.542969 21.195312 26.988281 20.207031 C 25.4375 19.21875 23.128906 20.0625 21.839844 22.089844 C 20.546875 24.117188 20.761719 26.5625 22.3125 27.550781 Z M 22.3125 27.550781 "/>
<path style=" stroke:none;fill-rule:nonzero;fill:rgb(62.745098%,22.352941%,22.352941%);fill-opacity:1;" d="M 16.886719 56.105469 C 16.476562 54.195312 14.953125 52.902344 13.492188 53.21875 C 12.027344 53.535156 11.179688 55.339844 11.589844 57.253906 C 12.003906 59.164062 13.523438 60.453125 14.988281 60.136719 C 16.449219 59.820312 17.300781 58.015625 16.886719 56.105469 Z M 16.886719 56.105469 "/>
<path style=" stroke:none;fill-rule:nonzero;fill:rgb(62.745098%,22.352941%,22.352941%);fill-opacity:1;" d="M 36.667969 18.332031 C 37.097656 18.332031 37.53125 18.148438 37.851562 17.832031 C 38.164062 17.53125 38.332031 17.097656 38.332031 16.667969 C 38.332031 16.234375 38.164062 15.800781 37.851562 15.484375 C 37.21875 14.867188 36.101562 14.867188 35.484375 15.484375 C 35.183594 15.800781 35 16.234375 35 16.667969 C 35 17.097656 35.183594 17.53125 35.484375 17.851562 C 35.800781 18.148438 36.234375 18.332031 36.667969 18.332031 Z M 36.667969 18.332031 "/>
<path style=" stroke:none;fill-rule:nonzero;fill:rgb(85.882353%,24.705882%,23.921569%);fill-opacity:1;" d="M 75.484375 38.796875 C 75.183594 39.113281 75 39.546875 75 39.980469 C 75 40.414062 75.183594 40.84375 75.484375 41.164062 C 75.800781 41.460938 76.234375 41.644531 76.667969 41.644531 C 77.097656 41.644531 77.53125 41.460938 77.851562 41.144531 C 78.164062 40.84375 78.332031 40.414062 78.332031 39.980469 C 78.332031 39.546875 78.164062 39.113281 77.851562 38.796875 C 77.214844 38.179688 76.101562 38.179688 75.484375 38.796875 Z M 75.484375 38.796875 "/>
<path style=" stroke:none;fill-rule:nonzero;fill:rgb(85.882353%,24.705882%,23.921569%);fill-opacity:1;" d="M 82.148438 45.484375 C 81.847656 45.800781 81.667969 46.234375 81.667969 46.667969 C 81.667969 47.097656 81.847656 47.53125 82.148438 47.851562 C 82.464844 48.148438 82.902344 48.332031 83.332031 48.332031 C 83.765625 48.332031 84.199219 48.148438 84.515625 47.832031 C 84.832031 47.53125 85 47.101562 85 46.667969 C 85 46.234375 84.832031 45.800781 84.515625 45.484375 C 83.882812 44.867188 82.765625 44.867188 82.148438 45.484375 Z M 82.148438 45.484375 "/>
<path style=" stroke:none;fill-rule:nonzero;fill:rgb(85.882353%,24.705882%,23.921569%);fill-opacity:1;" d="M 40.484375 67.148438 C 40.183594 67.464844 40 67.902344 40 68.332031 C 40 68.765625 40.183594 69.199219 40.484375 69.515625 C 40.800781 69.816406 41.234375 70 41.667969 70 C 42.097656 70 42.53125 69.816406 42.851562 69.5 C 43.164062 69.199219 43.332031 68.765625 43.332031 68.332031 C 43.332031 67.898438 43.164062 67.464844 42.851562 67.148438 C 42.21875 66.53125 41.101562 66.53125 40.484375 67.148438 Z M 40.484375 67.148438 "/>
<path style=" stroke:none;fill-rule:nonzero;fill:rgb(85.882353%,24.705882%,23.921569%);fill-opacity:1;" d="M 62.148438 75.484375 C 61.847656 75.800781 61.667969 76.234375 61.667969 76.667969 C 61.667969 77.097656 61.847656 77.53125 62.148438 77.851562 C 62.464844 78.148438 62.902344 78.332031 63.332031 78.332031 C 63.765625 78.332031 64.199219 78.148438 64.515625 77.832031 C 64.832031 77.53125 65 77.101562 65 76.667969 C 65 76.234375 64.832031 75.800781 64.515625 75.484375 C 63.882812 74.867188 62.765625 74.867188 62.148438 75.484375 Z M 62.148438 75.484375 "/>
<path style=" stroke:none;fill-rule:nonzero;fill:rgb(62.745098%,22.352941%,22.352941%);fill-opacity:1;" d="M 25.03125 59.289062 C 24.855469 60.191406 25.449219 61.0625 26.355469 61.238281 C 27.015625 61.363281 27.699219 61.472656 28.378906 61.585938 C 28.417969 60.464844 28.476562 59.347656 28.589844 58.246094 C 28.589844 58.238281 28.589844 58.230469 28.589844 58.222656 C 28.058594 58.132812 27.5 58.0625 26.976562 57.960938 C 26.074219 57.792969 25.199219 58.382812 25.03125 59.289062 Z M 25.03125 59.289062 "/>
<path style=" stroke:none;fill-rule:nonzero;fill:rgb(62.745098%,22.352941%,22.352941%);fill-opacity:1;" d="M 16.152344 43.652344 C 16.328125 43.710938 16.5 43.738281 16.671875 43.738281 C 17.375 43.738281 18.027344 43.292969 18.257812 42.589844 C 18.542969 41.714844 18.066406 40.773438 17.191406 40.488281 C 10.679688 38.347656 5.828125 35.710938 3.164062 32.863281 C 3.128906 32.828125 3.082031 32.8125 3.046875 32.78125 C 2.941406 33.058594 2.84375 33.339844 2.746094 33.621094 C 2.746094 33.632812 2.742188 33.640625 2.738281 33.648438 C 2.441406 34.519531 2.171875 35.402344 1.917969 36.289062 C 5.078125 39.089844 9.949219 41.617188 16.152344 43.652344 Z M 16.152344 43.652344 "/>
<path style=" stroke:none;fill-rule:nonzero;fill:rgb(62.745098%,22.352941%,22.352941%);fill-opacity:1;" d="M 38.414062 93.398438 C 38.367188 93.421875 38.320312 93.441406 38.273438 93.460938 C 35.40625 94.765625 32.460938 96.09375 30.53125 96.046875 C 30.941406 96.222656 31.363281 96.386719 31.785156 96.550781 C 32.167969 96.699219 32.546875 96.855469 32.933594 96.992188 C 33.285156 97.121094 33.644531 97.238281 34.003906 97.359375 C 34.558594 97.542969 35.113281 97.722656 35.675781 97.890625 C 35.835938 97.9375 35.992188 97.984375 36.152344 98.027344 C 37.292969 97.570312 38.464844 97.039062 39.65625 96.496094 C 39.960938 96.359375 40.265625 96.21875 40.566406 96.082031 C 40.566406 96.082031 40.566406 96.082031 40.570312 96.082031 C 39.816406 95.214844 39.105469 94.316406 38.414062 93.398438 Z M 38.414062 93.398438 "/>
<path style=" stroke:none;fill-rule:nonzero;fill:rgb(85.882353%,24.705882%,23.921569%);fill-opacity:1;" d="M 89.710938 19.628906 C 85.945312 21.304688 81.460938 22.761719 76.292969 23.945312 C 75.394531 24.148438 74.835938 25.042969 75.039062 25.941406 C 75.214844 26.714844 75.902344 27.234375 76.664062 27.234375 C 76.785156 27.234375 76.910156 27.222656 77.035156 27.195312 C 82.691406 25.902344 87.605469 24.285156 91.691406 22.402344 C 91.0625 21.457031 90.402344 20.53125 89.710938 19.628906 Z M 89.710938 19.628906 "/>
</g>
</svg>
