<?xml version="1.0" encoding="UTF-8"?>
<svg xmlns="http://www.w3.org/2000/svg" xmlns:xlink="http://www.w3.org/1999/xlink" width="100px" height="100px" viewBox="0 0 100 100" version="1.1">
<g id="surface1">
<path style=" stroke:none;fill-rule:nonzero;fill:rgb(95.686275%,48.627451%,42.745098%);fill-opacity:1;" d="M 92.945312 41.152344 C 95.792969 55.113281 91.824219 70.207031 81.023438 81.019531 C 74.628906 87.402344 66.75 91.410156 58.496094 93.027344 L 70.5 81.019531 C 71.695312 79.8125 71.695312 77.871094 70.5 76.664062 C 69.292969 75.457031 67.339844 75.457031 66.144531 76.664062 L 48.988281 93.820312 C 38.09375 93.570312 27.269531 89.308594 18.980469 81.019531 C 15.964844 77.992188 13.476562 74.636719 11.523438 71.054688 L 35.847656 46.742188 C 37.054688 45.535156 37.054688 43.578125 35.847656 42.382812 C 34.652344 41.179688 32.699219 41.179688 31.492188 42.382812 L 8.808594 65.070312 C 3.160156 49.527344 6.539062 31.417969 18.980469 18.976562 C 36.089844 1.878906 63.914062 1.878906 81.023438 18.976562 C 85.546875 23.5 88.855469 28.785156 90.988281 34.410156 L 67.230469 58.167969 C 66.023438 59.363281 66.023438 61.316406 67.230469 62.511719 C 68.4375 63.71875 70.378906 63.71875 71.585938 62.511719 Z M 67.59375 33.492188 C 68.800781 32.285156 68.800781 30.34375 67.59375 29.136719 C 66.386719 27.941406 64.445312 27.941406 63.238281 29.136719 L 44.921875 47.464844 C 43.714844 48.660156 43.714844 50.613281 44.921875 51.808594 C 46.128906 53.015625 48.070312 53.015625 49.277344 51.808594 Z M 67.59375 33.492188 "/>
<path style=" stroke:none;fill-rule:nonzero;fill:rgb(17.647059%,12.941176%,24.705882%);fill-opacity:1;" d="M 85.367188 14.632812 C 104.878906 34.132812 104.878906 65.867188 85.367188 85.375 C 65.867188 104.875 34.132812 104.875 14.625 85.375 C -4.875 65.867188 -4.875 34.132812 14.625 14.632812 C 34.132812 -4.878906 65.867188 -4.878906 85.367188 14.632812 Z M 81.023438 81.019531 C 91.824219 70.207031 95.792969 55.113281 92.945312 41.152344 L 71.585938 62.511719 C 70.382812 63.71875 68.4375 63.71875 67.230469 62.511719 C 66.023438 61.316406 66.023438 59.363281 67.230469 58.167969 L 90.988281 34.410156 C 88.855469 28.785156 85.546875 23.5 81.023438 18.976562 C 63.914062 1.878906 36.089844 1.878906 18.980469 18.976562 C 6.539062 31.417969 3.160156 49.527344 8.808594 65.070312 L 31.492188 42.386719 C 32.699219 41.179688 34.652344 41.179688 35.847656 42.386719 C 37.054688 43.578125 37.054688 45.535156 35.847656 46.742188 L 11.523438 71.054688 C 13.476562 74.636719 15.964844 77.992188 18.980469 81.019531 C 27.269531 89.3125 38.09375 93.570312 48.988281 93.824219 L 66.144531 76.664062 C 67.339844 75.457031 69.292969 75.457031 70.5 76.664062 C 71.695312 77.871094 71.695312 79.816406 70.5 81.019531 L 58.496094 93.027344 C 66.75 91.410156 74.628906 87.402344 81.023438 81.019531 Z M 81.023438 81.019531 "/>
<path style=" stroke:none;fill-rule:nonzero;fill:rgb(17.647059%,12.941176%,24.705882%);fill-opacity:1;" d="M 67.59375 29.136719 C 68.800781 30.34375 68.800781 32.285156 67.59375 33.492188 L 49.277344 51.808594 C 48.070312 53.015625 46.128906 53.015625 44.921875 51.808594 C 43.714844 50.613281 43.714844 48.660156 44.921875 47.464844 L 63.238281 29.136719 C 64.445312 27.941406 66.386719 27.941406 67.59375 29.136719 Z M 67.59375 29.136719 "/>
<path style=" stroke:none;fill-rule:nonzero;fill:rgb(93.72549%,40.784314%,36.862745%);fill-opacity:1;" d="M 19.707031 18.285156 L 55.480469 36.898438 L 63.238281 29.136719 C 64.519531 27.867188 66.632812 27.945312 67.8125 29.375 C 68.832031 30.613281 68.621094 32.464844 67.488281 33.597656 L 61.207031 39.878906 L 61.652344 40.109375 C 67.058594 42.921875 70.585938 48.378906 70.933594 54.464844 L 90.988281 34.410156 C 88.855469 28.789062 85.546875 23.503906 81.023438 18.976562 C 64.152344 2.117188 36.867188 1.894531 19.707031 18.285156 Z M 19.707031 18.285156 "/>
<path style=" stroke:none;fill-rule:nonzero;fill:rgb(93.72549%,40.784314%,36.862745%);fill-opacity:1;" d="M 92.945312 41.152344 L 71.585938 62.511719 C 71.527344 62.570312 71.460938 62.613281 71.398438 62.664062 L 72.804688 87.460938 C 75.726562 85.679688 78.492188 83.542969 81.023438 81.019531 C 91.824219 70.210938 95.792969 55.117188 92.945312 41.152344 Z M 92.945312 41.152344 "/>
</g>
</svg>
